<?xml version="1.0" encoding="UTF-8"?>
<svg version="1.1" xmlns="http://www.w3.org/2000/svg" width="500" height="500">
<path d="M0 0 C7.05669252 5.98872565 10.5492794 13.6864236 12.0390625 22.73046875 C12.28495797 27.37379493 12.27013447 32.01877152 12.2890625 36.66796875 C12.3096875 37.93060547 12.3303125 39.19324219 12.3515625 40.49414062 C12.35929687 42.3262207 12.35929687 42.3262207 12.3671875 44.1953125 C12.3765332 45.30511475 12.38587891 46.41491699 12.39550781 47.55834961 C11.98328313 51.22686694 10.9637443 53.59398157 9.0390625 56.73046875 C5.54569432 59.05938087 4.17898385 58.96598018 0.05859375 58.92578125 C-1.68647461 58.91611328 -1.68647461 58.91611328 -3.46679688 58.90625 C-4.68173828 58.88949219 -5.89667969 58.87273437 -7.1484375 58.85546875 C-8.37498047 58.84644531 -9.60152344 58.83742188 -10.86523438 58.828125 C-13.89733045 58.80452892 -16.92903688 58.77160716 -19.9609375 58.73046875 C-20.0781268 55.37660114 -20.14851334 52.02326726 -20.2109375 48.66796875 C-20.24445313 47.72501953 -20.27796875 46.78207031 -20.3125 45.81054688 C-20.40010778 39.5246885 -19.69207496 35.84376115 -15.9609375 30.73046875 C-12.99988418 28.50967876 -10.49326247 27.61354999 -6.9609375 26.73046875 C-6.4659375 25.74046875 -6.4659375 25.74046875 -5.9609375 24.73046875 C-6.8271875 24.66859375 -7.6934375 24.60671875 -8.5859375 24.54296875 C-12.64885415 23.56485919 -15.27310442 21.86230965 -17.9609375 18.73046875 C-19.23628459 16.4233802 -20.07826701 14.23136847 -20.9609375 11.73046875 C-21.23292969 12.31570312 -21.50492188 12.9009375 -21.78515625 13.50390625 C-22.94326591 15.69700429 -24.18673956 17.45478045 -25.7734375 19.35546875 C-26.25425781 19.94585937 -26.73507813 20.53625 -27.23046875 21.14453125 C-30.70052256 24.32476116 -34.45490397 24.98207652 -39.04296875 24.92578125 C-39.97431641 24.91933594 -40.90566406 24.91289062 -41.86523438 24.90625 C-42.82494141 24.88949219 -43.78464844 24.87273437 -44.7734375 24.85546875 C-45.75248047 24.84644531 -46.73152344 24.83742187 -47.74023438 24.828125 C-50.14738811 24.80464057 -52.55403493 24.77179715 -54.9609375 24.73046875 C-53.67181761 14.29165887 -50.396617 5.63730326 -41.88671875 -1.0234375 C-28.38986433 -9.75669624 -13.08584264 -9.36354464 0 0 Z " fill="#5044E2" transform="translate(161.9609375,219.26953125)"/>
<path d="M0 0 C18.92307692 0 18.92307692 0 24.5 3.625 C26.595531 6.94292408 27.2221973 10.13376703 27 14 C25.5625 17.5 25.5625 17.5 24 20 C24.804375 20.61875 25.60875 21.2375 26.4375 21.875 C29.10454614 24.0866968 29.85088109 24.81556981 30.2734375 28.171875 C30.58137554 35.98876369 30.58137554 35.98876369 27.625 39.5625 C24.04664901 42.88525449 22.53305659 43.123808 17.7734375 43.09765625 C16.3800415 43.09390991 16.3800415 43.09390991 14.95849609 43.09008789 C13.77594238 43.08098389 12.59338867 43.07187988 11.375 43.0625 C5.744375 43.0315625 5.744375 43.0315625 0 43 C0 28.81 0 14.62 0 0 Z M10 9 C10 11.64 10 14.28 10 17 C12.44480079 16.81171228 12.44480079 16.81171228 15 16 C16.36020151 14.03241727 16.36020151 14.03241727 17 12 C15.7511573 10.4166747 15.7511573 10.4166747 14 9 C12.68 9 11.36 9 10 9 Z M10 26 C10 28.97 10 31.94 10 35 C13.41656024 35.16677282 13.41656024 35.16677282 17 35 C19.23845015 33.17084359 19.23845015 33.17084359 19.3125 30.5 C19.209375 29.675 19.10625 28.85 19 28 C15.5647952 25.70986347 14.014669 25.82157027 10 26 Z " fill="#010101" transform="translate(187,228)"/>
<path d="M0 0 C0.87527344 0.00902344 1.75054687 0.01804688 2.65234375 0.02734375 C3.44769531 0.03894531 4.24304688 0.05054688 5.0625 0.0625 C6.0525 0.0625 7.0425 0.0625 8.0625 0.0625 C11.39583333 0.0625 14.72916667 0.0625 18.0625 0.0625 C18.1368839 4.52820449 18.19121171 8.99357684 18.22729492 13.4597168 C18.24234353 14.97768438 18.26278738 16.49560876 18.28881836 18.01342773 C18.32537653 20.20046677 18.34226523 22.38692896 18.35546875 24.57421875 C18.3711792 25.88865967 18.38688965 27.20310059 18.40307617 28.55737305 C17.92485221 33.4791375 16.18564148 35.93935852 12.75 39.375 C7.70117076 42.51139392 0.7242622 41.79753579 -4.9375 41.0625 C-9.07236646 39.06951728 -10.84181942 37.14356218 -12.9375 33.0625 C-10.35434343 31.45363573 -7.83584828 30.01597532 -4.9375 29.0625 C-2.3125 30.375 -2.3125 30.375 0.0625 32.0625 C3.23992605 32.1583418 3.23992605 32.1583418 6.0625 31.0625 C7.49887698 29.11086882 7.49887698 29.11086882 8.0625 27.0625 C7.4025 27.3925 6.7425 27.7225 6.0625 28.0625 C0.58399733 28.78024745 -4.44822316 29.10125151 -9 25.625 C-12.57420602 21.98205925 -13.74405023 18.10098728 -13.9375 13.0625 C-13.09922278 7.47398518 -11.21654744 4.69969033 -6.9375 1.0625 C-4.45344043 -0.17952979 -2.76852337 -0.03658841 0 0 Z M-1.1875 9.6875 C-3.29747585 12.0096241 -3.29747585 12.0096241 -2.6875 15.3125 C-2.44 16.22 -2.1925 17.1275 -1.9375 18.0625 C0.84075456 19.35026153 0.84075456 19.35026153 4.0625 20.0625 C6.5625 19.22916667 6.5625 19.22916667 8.0625 17.0625 C8.72916667 14.0625 8.72916667 14.0625 8.0625 11.0625 C6.3515789 9.09151574 6.3515789 9.09151574 4.0625 8.0625 C1.00526455 7.76975472 1.00526455 7.76975472 -1.1875 9.6875 Z " fill="#010101" transform="translate(315.9375,243.9375)"/>
<path d="M0 0 C0.85722656 0.02707031 1.71445312 0.05414063 2.59765625 0.08203125 C3.36980469 0.11683594 4.14195312 0.15164062 4.9375 0.1875 C5.9275 0.1875 6.9175 0.1875 7.9375 0.1875 C11.27083333 0.1875 14.60416667 0.1875 17.9375 0.1875 C18.08665437 4.75889018 18.19508516 9.3288423 18.26708984 13.90209961 C18.29712575 15.45508517 18.337969 17.00790303 18.39013672 18.56030273 C18.86713367 33.12741564 18.86713367 33.12741564 15.1015625 37.68359375 C10.32540674 42.15187367 4.53274108 41.51989869 -1.65625 41.46875 C-6.17050291 41.09601352 -7.9686056 40.45818836 -11.0625 37.1875 C-11.9375 34.4375 -11.9375 34.4375 -12.0625 32.1875 C-9.44570732 30.94896948 -6.8903113 29.83713233 -4.0625 29.1875 C-1.9375 30.5625 -1.9375 30.5625 -0.0625 32.1875 C3.07112718 32.27642339 3.07112718 32.27642339 5.9375 31.1875 C7.37387698 29.23586882 7.37387698 29.23586882 7.9375 27.1875 C7.2775 27.5175 6.6175 27.8475 5.9375 28.1875 C1.43898004 28.60152308 -2.70190679 28.71990604 -6.9375 27.0625 C-10.35565988 24.04647657 -12.70362309 21.41688686 -13.44921875 16.78515625 C-13.69760704 11.08935578 -12.93785232 7.60109569 -9.0625 3.1875 C-5.98557196 0.40706396 -4.12521049 -0.167995 0 0 Z M-1.3125 9.875 C-3.32022031 12.04472115 -3.32022031 12.04472115 -3.0625 14.75 C-1.84594185 17.7153605 -0.96673812 18.81605422 1.9375 20.1875 C4.33013407 19.51978817 6.15847385 18.96652615 7.9375 17.1875 C8.35452122 14.2717309 8.35452122 14.2717309 7.9375 11.1875 C6.2265789 9.21651574 6.2265789 9.21651574 3.9375 8.1875 C0.86875 7.8875 0.86875 7.8875 -1.3125 9.875 Z " fill="#010101" transform="translate(281.0625,243.8125)"/>
<path d="M0 0 C3.56234428 -0.08741124 7.12441108 -0.14052896 10.6875 -0.1875 C11.69490234 -0.21263672 12.70230469 -0.23777344 13.74023438 -0.26367188 C20.56489388 -0.33124276 24.07625426 0.4011149 29.25 5 C32.01703846 8.16232966 32.12211339 10.85129061 32.09765625 14.88671875 C32.09443359 15.82451172 32.09121094 16.76230469 32.08789062 17.72851562 C32.07532227 19.19321289 32.07532227 19.19321289 32.0625 20.6875 C32.05798828 21.67556641 32.05347656 22.66363281 32.04882812 23.68164062 C32.03704303 26.12115474 32.02059011 28.56054689 32 31 C27.77119589 31.14541967 23.54303587 31.23411527 19.3125 31.3125 C18.11431641 31.35439453 16.91613281 31.39628906 15.68164062 31.43945312 C5.76229504 31.57760557 5.76229504 31.57760557 2.73046875 28.66796875 C0.25280702 24.84800721 -0.12226556 22.13006705 -0.09765625 17.67578125 C-0.09443359 16.64775391 -0.09121094 15.61972656 -0.08789062 14.56054688 C-0.07951172 13.48869141 -0.07113281 12.41683594 -0.0625 11.3125 C-0.05798828 10.22904297 -0.05347656 9.14558594 -0.04882812 8.02929688 C-0.03703743 5.35280915 -0.02058063 2.67643223 0 0 Z " fill="#4F44DC" transform="translate(107,247)"/>
<path d="M0 0 C3.82942075 2.03797499 6.26094701 4.23090809 7.7578125 8.28125 C8.2904275 12.82723156 8.29069086 16.83934385 6.6953125 21.15625 C3.24321138 24.94242543 0.11401379 26.97347334 -4.93359375 27.6328125 C-11.76572888 27.83731178 -16.28587342 26.83806218 -21.5546875 22.28125 C-24.41800493 18.8876886 -24.52860687 15.61569168 -24.45703125 11.2734375 C-23.99599391 6.99836396 -21.80476682 4.77522209 -18.6796875 2.03125 C-13.30541194 -1.82720425 -6.29204127 -2.01696096 0 0 Z M-11.4296875 8.40625 C-13.52303791 10.21697823 -13.52303791 10.21697823 -13.7421875 13.28125 C-13.49737061 16.32403274 -13.49737061 16.32403274 -11.5546875 18.28125 C-9.24589843 19.53659076 -9.24589843 19.53659076 -6.6171875 18.78125 C-3.72275266 16.95318589 -3.1780139 15.51410484 -2.2421875 12.28125 C-4.04076418 9.7203206 -4.04076418 9.7203206 -6.2421875 7.28125 C-9.20751586 7.05257599 -9.20751586 7.05257599 -11.4296875 8.40625 Z " fill="#010101" transform="translate(258.2421875,244.71875)"/>
<path d="M0 0 C4.08327212 2.22218891 6.52646147 4.57938442 8 9 C8 11.31 8 13.62 8 16 C2.06 16.33 -3.88 16.66 -10 17 C-8.12953174 19.29926298 -8.12953174 19.29926298 -5.125 19.25 C-2.06284404 19.23584092 -2.06284404 19.23584092 0 17.8125 C0.66 17.544375 1.32 17.27625 2 17 C5.25 18.375 5.25 18.375 8 20 C6.46698025 24.29245529 4.0322912 26.01922537 0 28 C-5.29158738 28.78626856 -9.57302746 28.67456884 -14.4375 26.375 C-18.44176077 22.66373392 -21.19542716 19.52622524 -21.4375 13.9375 C-20.82746878 8.447219 -19.11251092 6.28366644 -15.5625 2.1875 C-11.04047016 -1.36229343 -5.41327007 -1.04212686 0 0 Z M-10 8 C-10 8.66 -10 9.32 -10 10 C-7.36 10 -4.72 10 -2 10 C-2.33 9.01 -2.66 8.02 -3 7 C-6.37104174 5.53921524 -6.78149208 5.85432805 -10 8 Z " fill="#020202" transform="translate(358,244)"/>
<path d="M0 0 C3.3 0 6.6 0 10 0 C10 14.52 10 29.04 10 44 C6.7 44 3.4 44 0 44 C0 29.48 0 14.96 0 0 Z " fill="#010101" transform="translate(221,227)"/>
<path d="M0 0 C9 0 9 0 11 1 C11.66 0.67 12.32 0.34 13 0 C14.54023996 -0.06950541 16.08334988 -0.08452357 17.625 -0.0625 C18.85089844 -0.04896484 18.85089844 -0.04896484 20.1015625 -0.03515625 C21.04128906 -0.01775391 21.04128906 -0.01775391 22 0 C23.08784335 3.31395986 23.07262544 3.83580335 21.5625 7.25 C21.046875 8.1575 20.53125 9.065 20 10 C19.071875 9.79375 18.14375 9.5875 17.1875 9.375 C13.84826598 8.63307034 13.84826598 8.63307034 11 11 C10.61605333 13.77262255 10.39657752 16.34323528 10.3125 19.125 C10.27833984 19.87910156 10.24417969 20.63320313 10.20898438 21.41015625 C10.12645722 23.27291201 10.06155289 25.13643326 10 27 C6.7 27 3.4 27 0 27 C0 18.09 0 9.18 0 0 Z " fill="#010101" transform="translate(370,244)"/>
<path d="M0 0 C3.97094076 7.14769336 3.21763622 14.98814536 3.25 22.9375 C3.270625 24.20013672 3.29125 25.46277344 3.3125 26.76367188 C3.32023438 28.59575195 3.32023438 28.59575195 3.328125 30.46484375 C3.34214355 32.12954712 3.34214355 32.12954712 3.35644531 33.82788086 C2.94443172 37.49451967 1.95736855 39.88363306 0 43 C-1.485 43.495 -1.485 43.495 -3 44 C-3 43.34 -3 42.68 -3 42 C-2.34 42 -1.68 42 -1 42 C-0.08432888 27.98696157 0.12311627 14.04093755 0 0 Z " fill="#4C40C1" transform="translate(171,233)"/>
<path d="M0 0 C0.66 0.33 1.32 0.66 2 1 C1.67 1.99 1.34 2.98 1 4 C1.45638949 5.95340965 1.45638949 5.95340965 2.3125 7.9375 C2.59351563 8.63746094 2.87453125 9.33742187 3.1640625 10.05859375 C4.0353337 12.08206005 4.9504194 14.06231274 6 16 C2.60582235 12.87378374 0.3937282 10.43458973 -1 6 C-1.2475 6.5775 -1.495 7.155 -1.75 7.75 C-3.16683317 10.3002997 -4.87627537 12.01785701 -7 14 C-6.67 12.35 -6.34 10.7 -6 9 C-6.66 9 -7.32 9 -8 9 C-7.37240135 6.07120629 -6.41377341 3.63904371 -5 1 C-3.35 1.33 -1.7 1.66 0 2 C0 1.34 0 0.68 0 0 Z " fill="#5046CD" transform="translate(142,225)"/>
<path d="M0 0 C1.24451915 3.59527755 0.70603283 6.31293967 0 10 C0 10.99 0 11.98 0 13 C5.61 13.33 11.22 13.66 17 14 C17 14.33 17 14.66 17 15 C10.07 15 3.14 15 -4 15 C-2.125 3.75 -2.125 3.75 0 0 Z " fill="#5148C6" transform="translate(111,229)"/>
<path d="M0 0 C1.67542976 0.28604898 3.34385343 0.61781233 5 1 C6.125 4.75 6.125 4.75 5 7 C2.625 7.125 2.625 7.125 0 7 C-0.66 6.34 -1.32 5.68 -2 5 C-1.46428571 1.46428571 -1.46428571 1.46428571 0 0 Z " fill="#483FB9" transform="translate(168,212)"/>
<path d="M0 0 C0 0.66 0 1.32 0 2 C1.32 1.01 2.64 0.02 4 -1 C4.66 0.32 5.32 1.64 6 3 C4.875 5 4.875 5 3 7 C-0.1875 7.25 -0.1875 7.25 -3 7 C-2.360625 6.71125 -1.72125 6.4225 -1.0625 6.125 C1.15206079 5.17176549 1.15206079 5.17176549 2 3 C1.05125 2.87625 0.1025 2.7525 -0.875 2.625 C-4 2 -4 2 -6 0 C-2.25 -1.125 -2.25 -1.125 0 0 Z " fill="#5146CF" transform="translate(154,241)"/>
<path d="M0 0 C0.66 0.33 1.32 0.66 2 1 C0.68 3.31 -0.64 5.62 -2 8 C-3.32 8 -4.64 8 -6 8 C-6.33 8.99 -6.66 9.98 -7 11 C-7.99 11.33 -8.98 11.66 -10 12 C-8.62968895 6.34746692 -4.32310587 3.4886459 0 0 Z " fill="#534ACA" transform="translate(122,217)"/>
<path d="M0 0 C3.48331435 3.01887244 4.79157144 5.56909529 6 10 C5.34 10 4.68 10 4 10 C4 9.34 4 8.68 4 8 C3.34 8 2.68 8 2 8 C2 7.34 2 6.68 2 6 C1.01 6 0.02 6 -1 6 C-0.67 4.02 -0.34 2.04 0 0 Z " fill="#4F45C7" transform="translate(165,223)"/>
<path d="M0 0 C0.33 0 0.66 0 1 0 C1.36637589 6.35051546 1.36637589 6.35051546 -0.375 9.4375 C-2 11 -2 11 -4 11 C-4 10.34 -4 9.68 -4 9 C-3.34 9 -2.68 9 -2 9 C-2.04125 8.2575 -2.0825 7.515 -2.125 6.75 C-1.99601866 3.91241048 -1.42948778 2.41226062 0 0 Z " fill="#4D44C2" transform="translate(172,266)"/>
<path d="M0 0 C5.19822672 1.36144033 8.09543873 3.46730171 12 7 C8.89448334 7 7.64738916 6.4606285 5 5 C5 4.34 5 3.68 5 3 C3.35 2.67 1.7 2.34 0 2 C0 1.34 0 0.68 0 0 Z " fill="#5048C1" transform="translate(153,215)"/>
<path d="M0 0 C0.66 0 1.32 0 2 0 C2.33 1.65 2.66 3.3 3 5 C1.68 5.33 0.36 5.66 -1 6 C-1.33 5.34 -1.66 4.68 -2 4 C-1.34 3.67 -0.68 3.34 0 3 C0 2.01 0 1.02 0 0 Z " fill="#4941D2" transform="translate(169,213)"/>
</svg>
